<svg width="48" height="48" viewBox="0 0 48 48" fill="none" xmlns="http://www.w3.org/2000/svg">
<g opacity="0.02" filter="url(#filter0_d_4_190)">
<circle cx="24" cy="20" r="20" fill="#000A66"/>
</g>
<path d="M27.3333 14.3333C27.3333 14.2449 27.2982 14.1601 27.2357 14.0976C27.1732 14.0351 27.0884 14 27 14H25.3333C24.4941 13.9582 23.6724 14.2503 23.0478 14.8124C22.4232 15.3745 22.0465 16.161 22 17V18.8H20.3333C20.2449 18.8 20.1601 18.8351 20.0976 18.8976C20.0351 18.9601 20 19.0449 20 19.1333V20.8667C20 20.9551 20.0351 21.0399 20.0976 21.1024C20.1601 21.1649 20.2449 21.2 20.3333 21.2H22V25.6667C22 25.7551 22.0351 25.8399 22.0976 25.9024C22.1601 25.9649 22.2449 26 22.3333 26H24.3333C24.4217 26 24.5065 25.9649 24.569 25.9024C24.6315 25.8399 24.6667 25.7551 24.6667 25.6667V21.2H26.4133C26.4875 21.2011 26.5598 21.1774 26.619 21.1327C26.6782 21.088 26.7207 21.0249 26.74 20.9533L27.22 19.22C27.2333 19.1707 27.235 19.1191 27.2252 19.0691C27.2154 19.019 27.1942 18.9719 27.1633 18.9313C27.1324 18.8907 27.0926 18.8578 27.0469 18.835C27.0013 18.8123 26.951 18.8003 26.9 18.8H24.6667V17C24.6832 16.835 24.7607 16.6821 24.884 16.5711C25.0073 16.4602 25.1675 16.3992 25.3333 16.4H27C27.0884 16.4 27.1732 16.3649 27.2357 16.3024C27.2982 16.2399 27.3333 16.1551 27.3333 16.0667V14.3333Z" fill="#000A66"/>
<defs>
<filter id="filter0_d_4_190" x="0" y="0" width="48" height="48" filterUnits="userSpaceOnUse" color-interpolation-filters="sRGB">
<feFlood flood-opacity="0" result="BackgroundImageFix"/>
<feColorMatrix in="SourceAlpha" type="matrix" values="0 0 0 0 0 0 0 0 0 0 0 0 0 0 0 0 0 0 127 0" result="hardAlpha"/>
<feOffset dy="4"/>
<feGaussianBlur stdDeviation="2"/>
<feComposite in2="hardAlpha" operator="out"/>
<feColorMatrix type="matrix" values="0 0 0 0 0 0 0 0 0 0 0 0 0 0 0 0 0 0 0.25 0"/>
<feBlend mode="normal" in2="BackgroundImageFix" result="effect1_dropShadow_4_190"/>
<feBlend mode="normal" in="SourceGraphic" in2="effect1_dropShadow_4_190" result="shape"/>
</filter>
</defs>
</svg>
