<svg width="14" height="14" viewBox="0 0 14 14" fill="none" xmlns="http://www.w3.org/2000/svg">
<path d="M8.41751 10.9783C8.30668 10.9783 8.19585 10.9375 8.10835 10.85C8.02698 10.7677 7.98135 10.6566 7.98135 10.5408C7.98135 10.4251 8.02698 10.314 8.10835 10.2317L11.34 7L8.10835 3.76833C8.02698 3.686 7.98135 3.57492 7.98135 3.45917C7.98135 3.34342 8.02698 3.23233 8.10835 3.15C8.27751 2.98083 8.55751 2.98083 8.72668 3.15L12.2675 6.69083C12.4367 6.86 12.4367 7.14 12.2675 7.30917L8.72668 10.85C8.63918 10.9375 8.52835 10.9783 8.41751 10.9783Z" fill="#070023"/>
<path d="M11.8592 7.4375H2.04166C1.80249 7.4375 1.60416 7.23917 1.60416 7C1.60416 6.76083 1.80249 6.5625 2.04166 6.5625H11.8592C12.0983 6.5625 12.2967 6.76083 12.2967 7C12.2967 7.23917 12.0983 7.4375 11.8592 7.4375Z" fill="#070023"/>
</svg>
