<svg width="40" height="40" viewBox="0 0 40 40" fill="none" xmlns="http://www.w3.org/2000/svg">
<circle opacity="0.02" cx="20" cy="20" r="20" fill="#000A66"/>
<path d="M17.96 24.4697C18.8046 24.475 19.6418 24.3125 20.4231 23.9918C21.2044 23.671 21.9143 23.1983 22.5115 22.6011C23.1087 22.0039 23.5814 21.2941 23.9021 20.5128C24.2229 19.7315 24.3853 18.8942 24.38 18.0497V17.7547C24.8178 17.4339 25.1967 17.0398 25.5 16.5897C25.0878 16.77 24.6516 16.8895 24.205 16.9447C24.6785 16.6626 25.0337 16.2185 25.205 15.6947C24.7638 15.9594 24.2799 16.1455 23.775 16.2447C23.435 15.8823 22.985 15.6422 22.4947 15.5614C22.0045 15.4805 21.5012 15.5635 21.0629 15.7975C20.6245 16.0315 20.2755 16.4034 20.0698 16.8557C19.8641 17.308 19.8132 17.8155 19.925 18.2997C19.028 18.2556 18.1504 18.0232 17.3492 17.6174C16.548 17.2117 15.8413 16.6417 15.275 15.9447C14.9895 16.4403 14.9029 17.0258 15.0329 17.5828C15.1628 18.1398 15.4996 18.6266 15.975 18.9447C15.6243 18.9311 15.2817 18.8352 14.975 18.6647V18.6897C14.9719 19.2076 15.1464 19.7109 15.4694 20.1158C15.7923 20.5207 16.2443 20.8026 16.75 20.9147C16.4238 21.0024 16.0821 21.0161 15.75 20.9547C15.8964 21.3964 16.1758 21.782 16.55 22.0586C16.9242 22.3352 17.3748 22.4892 17.84 22.4997C17.0446 23.1399 16.056 23.4924 15.035 23.4997C14.856 23.4945 14.6774 23.4795 14.5 23.4547C15.5335 24.1131 16.7346 24.4603 17.96 24.4547" fill="#000A66"/>
</svg>
