<svg width="12" height="10" viewBox="0 0 12 10" fill="none" xmlns="http://www.w3.org/2000/svg">
<path d="M3.96 9.46967C4.80457 9.47498 5.64179 9.31255 6.4231 8.99179C7.20441 8.67104 7.91425 8.19835 8.51147 7.60113C9.10868 7.00392 9.58137 6.29407 9.90213 5.51277C10.2229 4.73146 10.3853 3.89424 10.38 3.04967V2.75467C10.8178 2.43391 11.1967 2.03975 11.5 1.58967C11.0878 1.76996 10.6516 1.88954 10.205 1.94467C10.6785 1.66256 11.0337 1.2185 11.205 0.694667C10.7638 0.959387 10.2799 1.14548 9.775 1.24467C9.43496 0.88235 8.985 0.642195 8.49473 0.56136C8.00446 0.480525 7.50122 0.563516 7.06287 0.797494C6.62452 1.03147 6.27549 1.40339 6.0698 1.85571C5.86411 2.30802 5.81322 2.81552 5.925 3.29967C5.02801 3.25564 4.15036 3.02318 3.34918 2.61742C2.548 2.21166 1.84127 1.64171 1.275 0.944667C0.989461 1.44025 0.902913 2.02583 1.03288 2.58283C1.16285 3.13983 1.49962 3.62663 1.975 3.94467C1.62431 3.93114 1.28173 3.83522 0.975 3.66467V3.68967C0.971884 4.20758 1.14636 4.71093 1.46935 5.1158C1.79234 5.52068 2.24434 5.80263 2.75 5.91467C2.42382 6.0024 2.08215 6.01606 1.75 5.95467C1.89639 6.39636 2.17584 6.78195 2.55002 7.05856C2.9242 7.33517 3.3748 7.48925 3.84 7.49967C3.04461 8.13993 2.05605 8.49236 1.035 8.49967C0.855977 8.49449 0.677374 8.47946 0.5 8.45467C1.53348 9.11312 2.7346 9.46026 3.96 9.45467" fill="#000A66"/>
</svg>
