<svg width="16" height="16" viewBox="0 0 16 16" fill="none" xmlns="http://www.w3.org/2000/svg">
<path d="M11.3333 2.33333C11.3333 2.24493 11.2982 2.16014 11.2357 2.09763C11.1732 2.03512 11.0884 2 11 2H9.33333C8.49408 1.9582 7.6724 2.25026 7.04781 2.81239C6.42323 3.37451 6.04652 4.161 6 5V6.8H4.33333C4.24493 6.8 4.16014 6.83512 4.09763 6.89763C4.03512 6.96014 4 7.04493 4 7.13333V8.86667C4 8.95507 4.03512 9.03986 4.09763 9.10237C4.16014 9.16488 4.24493 9.2 4.33333 9.2H6V13.6667C6 13.7551 6.03512 13.8399 6.09763 13.9024C6.16014 13.9649 6.24493 14 6.33333 14H8.33333C8.42174 14 8.50652 13.9649 8.56904 13.9024C8.63155 13.8399 8.66667 13.7551 8.66667 13.6667V9.2H10.4133C10.4875 9.20107 10.5598 9.17739 10.619 9.13272C10.6782 9.08804 10.7207 9.02492 10.74 8.95333L11.22 7.22C11.2333 7.17075 11.235 7.11911 11.2252 7.06906C11.2154 7.01901 11.1942 6.97189 11.1633 6.93132C11.1324 6.89074 11.0926 6.85781 11.0469 6.83504C11.0013 6.81227 10.951 6.80029 10.9 6.8H8.66667V5C8.68325 4.83499 8.76074 4.68208 8.88402 4.57113C9.00729 4.46018 9.16749 4.39917 9.33333 4.4H11C11.0884 4.4 11.1732 4.36488 11.2357 4.30237C11.2982 4.23986 11.3333 4.15507 11.3333 4.06667V2.33333Z" fill="#000A66"/>
</svg>
