<svg width="14" height="14" viewBox="0 0 14 14" fill="none" xmlns="http://www.w3.org/2000/svg">
<path d="M7.00007 3.795C5.22664 3.795 3.79539 5.22625 3.79539 6.99968C3.79539 8.77312 5.22664 10.2044 7.00007 10.2044C8.77351 10.2044 10.2048 8.77312 10.2048 6.99968C10.2048 5.22625 8.77351 3.795 7.00007 3.795ZM7.00007 9.0825C5.8532 9.0825 4.91726 8.14656 4.91726 6.99968C4.91726 5.85281 5.8532 4.91687 7.00007 4.91687C8.14695 4.91687 9.08289 5.85281 9.08289 6.99968C9.08289 8.14656 8.14695 9.0825 7.00007 9.0825ZM10.336 2.91687C9.92195 2.91687 9.58757 3.25125 9.58757 3.66531C9.58757 4.07937 9.92195 4.41375 10.336 4.41375C10.7501 4.41375 11.0844 4.08093 11.0844 3.66531C11.0846 3.56699 11.0653 3.46961 11.0277 3.37875C10.9902 3.28789 10.935 3.20533 10.8655 3.13581C10.796 3.06628 10.7134 3.01116 10.6226 2.97359C10.5317 2.93602 10.4343 2.91675 10.336 2.91687ZM13.2469 6.99968C13.2469 6.13718 13.2548 5.2825 13.2063 4.42156C13.1579 3.42156 12.9298 2.53406 12.1985 1.80281C11.4657 1.07 10.5798 0.843433 9.57976 0.794996C8.71726 0.746558 7.86257 0.754371 7.00164 0.754371C6.13914 0.754371 5.28445 0.746558 4.42351 0.794996C3.42351 0.843433 2.53601 1.07156 1.80476 1.80281C1.07195 2.53562 0.845387 3.42156 0.796949 4.42156C0.748512 5.28406 0.756324 6.13875 0.756324 6.99968C0.756324 7.86062 0.748512 8.71687 0.796949 9.57781C0.845387 10.5778 1.07351 11.4653 1.80476 12.1966C2.53757 12.9294 3.42351 13.1559 4.42351 13.2044C5.28601 13.2528 6.1407 13.245 7.00164 13.245C7.86414 13.245 8.71882 13.2528 9.57976 13.2044C10.5798 13.1559 11.4673 12.9278 12.1985 12.1966C12.9313 11.4637 13.1579 10.5778 13.2063 9.57781C13.2563 8.71687 13.2469 7.86218 13.2469 6.99968ZM11.8719 10.6841C11.7579 10.9684 11.6204 11.1809 11.4001 11.3997C11.1798 11.62 10.9688 11.7575 10.6844 11.8716C9.86257 12.1981 7.91101 12.1247 7.00007 12.1247C6.08914 12.1247 4.13601 12.1981 3.31414 11.8731C3.02976 11.7591 2.81726 11.6216 2.59851 11.4012C2.3782 11.1809 2.2407 10.97 2.12664 10.6856C1.80164 9.86218 1.87507 7.91062 1.87507 6.99968C1.87507 6.08875 1.80164 4.13562 2.12664 3.31375C2.2407 3.02937 2.3782 2.81687 2.59851 2.59812C2.81882 2.37937 3.02976 2.24031 3.31414 2.12625C4.13601 1.80125 6.08914 1.87468 7.00007 1.87468C7.91101 1.87468 9.86414 1.80125 10.686 2.12625C10.9704 2.24031 11.1829 2.37781 11.4016 2.59812C11.6219 2.81843 11.7594 3.02937 11.8735 3.31375C12.1985 4.13562 12.1251 6.08875 12.1251 6.99968C12.1251 7.91062 12.1985 9.86218 11.8719 10.6841Z" fill="#000A66"/>
</svg>
