<svg width="40" height="40" viewBox="0 0 40 40" fill="none" xmlns="http://www.w3.org/2000/svg">
<circle opacity="0.02" cx="20" cy="20" r="20" fill="#000A66"/>
<path d="M20.0001 16.795C18.2266 16.795 16.7954 18.2262 16.7954 19.9997C16.7954 21.7731 18.2266 23.2044 20.0001 23.2044C21.7735 23.2044 23.2048 21.7731 23.2048 19.9997C23.2048 18.2262 21.7735 16.795 20.0001 16.795ZM20.0001 22.0825C18.8532 22.0825 17.9173 21.1466 17.9173 19.9997C17.9173 18.8528 18.8532 17.9169 20.0001 17.9169C21.1469 17.9169 22.0829 18.8528 22.0829 19.9997C22.0829 21.1466 21.1469 22.0825 20.0001 22.0825ZM23.336 15.9169C22.9219 15.9169 22.5876 16.2512 22.5876 16.6653C22.5876 17.0794 22.9219 17.4137 23.336 17.4137C23.7501 17.4137 24.0844 17.0809 24.0844 16.6653C24.0846 16.567 24.0653 16.4696 24.0277 16.3787C23.9902 16.2879 23.935 16.2053 23.8655 16.1358C23.796 16.0663 23.7134 16.0112 23.6226 15.9736C23.5317 15.936 23.4343 15.9167 23.336 15.9169V15.9169ZM26.2469 19.9997C26.2469 19.1372 26.2548 18.2825 26.2063 17.4216C26.1579 16.4216 25.9298 15.5341 25.1985 14.8028C24.4657 14.07 23.5798 13.8434 22.5798 13.795C21.7173 13.7466 20.8626 13.7544 20.0016 13.7544C19.1391 13.7544 18.2844 13.7466 17.4235 13.795C16.4235 13.8434 15.536 14.0716 14.8048 14.8028C14.0719 15.5356 13.8454 16.4216 13.7969 17.4216C13.7485 18.2841 13.7563 19.1387 13.7563 19.9997C13.7563 20.8606 13.7485 21.7169 13.7969 22.5778C13.8454 23.5778 14.0735 24.4653 14.8048 25.1966C15.5376 25.9294 16.4235 26.1559 17.4235 26.2044C18.286 26.2528 19.1407 26.245 20.0016 26.245C20.8641 26.245 21.7188 26.2528 22.5798 26.2044C23.5798 26.1559 24.4673 25.9278 25.1985 25.1966C25.9313 24.4637 26.1579 23.5778 26.2063 22.5778C26.2563 21.7169 26.2469 20.8622 26.2469 19.9997V19.9997ZM24.8719 23.6841C24.7579 23.9684 24.6204 24.1809 24.4001 24.3997C24.1798 24.62 23.9688 24.7575 23.6844 24.8716C22.8626 25.1981 20.911 25.1247 20.0001 25.1247C19.0891 25.1247 17.136 25.1981 16.3141 24.8731C16.0298 24.7591 15.8173 24.6216 15.5985 24.4012C15.3782 24.1809 15.2407 23.97 15.1266 23.6856C14.8016 22.8622 14.8751 20.9106 14.8751 19.9997C14.8751 19.0887 14.8016 17.1356 15.1266 16.3137C15.2407 16.0294 15.3782 15.8169 15.5985 15.5981C15.8188 15.3794 16.0298 15.2403 16.3141 15.1262C17.136 14.8012 19.0891 14.8747 20.0001 14.8747C20.911 14.8747 22.8641 14.8012 23.686 15.1262C23.9704 15.2403 24.1829 15.3778 24.4016 15.5981C24.6219 15.8184 24.7594 16.0294 24.8735 16.3137C25.1985 17.1356 25.1251 19.0887 25.1251 19.9997C25.1251 20.9106 25.1985 22.8622 24.8719 23.6841Z" fill="#000A66"/>
</svg>
