<svg width="40" height="40" viewBox="0 0 40 40" fill="none" xmlns="http://www.w3.org/2000/svg">
<circle opacity="0.02" cx="20" cy="20" r="20" fill="#000A66"/>
<path fill-rule="evenodd" clip-rule="evenodd" d="M18.2847 17.979H20.7607V19.2123C21.1174 18.503 22.032 17.8657 23.406 17.8657C26.04 17.8657 26.6654 19.2777 26.6654 21.8683V26.6663H23.9987V22.4583C23.9987 20.983 23.642 20.151 22.734 20.151C21.4747 20.151 20.9514 21.0477 20.9514 22.4577V26.6663H18.2847V17.979V17.979ZM13.712 26.553H16.3787V17.8657H13.712V26.553V26.553ZM16.7607 15.033C16.7608 15.2565 16.7165 15.4778 16.6303 15.6841C16.5441 15.8903 16.4178 16.0773 16.2587 16.2343C15.9363 16.5548 15.4999 16.7341 15.0454 16.733C14.5916 16.7327 14.1562 16.5538 13.8334 16.235C13.6748 16.0775 13.549 15.8902 13.4629 15.684C13.3769 15.4777 13.3324 15.2565 13.332 15.033C13.332 14.5817 13.512 14.1497 13.834 13.831C14.1566 13.5118 14.5922 13.3328 15.046 13.333C15.5007 13.333 15.9367 13.5123 16.2587 13.831C16.58 14.1497 16.7607 14.5817 16.7607 15.033Z" fill="#000A66"/>
</svg>
