<svg width="14" height="14" viewBox="0 0 14 14" fill="none" xmlns="http://www.w3.org/2000/svg">
<path fill-rule="evenodd" clip-rule="evenodd" d="M5.2847 4.97901H7.7607V6.21234C8.11736 5.50301 9.03203 4.86567 10.406 4.86567C13.04 4.86567 13.6654 6.27767 13.6654 8.86834V13.6663H10.9987V9.45834C10.9987 7.98301 10.642 7.15101 9.73403 7.15101C8.4747 7.15101 7.95136 8.04767 7.95136 9.45767V13.6663H5.2847V4.97901ZM0.712031 13.553H3.3787V4.86567H0.712031V13.553ZM3.7607 2.03301C3.7608 2.25652 3.71647 2.47783 3.63029 2.68407C3.54411 2.8903 3.4178 3.07735 3.2587 3.23434C2.9363 3.55476 2.4999 3.73411 2.04536 3.73301C1.59162 3.7327 1.15624 3.55381 0.833365 3.23501C0.674839 3.07748 0.548955 2.89022 0.462927 2.68396C0.376899 2.4777 0.332417 2.25649 0.332031 2.03301C0.332031 1.58167 0.512031 1.14967 0.834031 0.831008C1.15662 0.51178 1.59219 0.332808 2.04603 0.333008C2.5007 0.333008 2.9367 0.512341 3.2587 0.831008C3.58003 1.14967 3.7607 1.58167 3.7607 2.03301Z" fill="#000A66"/>
</svg>
